<svg xmlns="http://www.w3.org/2000/svg" width="900" height="450">
<rect width="100%" height="100%" fill="white"/>
<text x="450.0" y="30" text-anchor="middle" font-size="16">Overall Benford Analysis (Observed vs Expected)</text>
<text x="103.33333333333334" y="410" text-anchor="middle" font-size="12">1</text>
<text x="190.00000000000003" y="410" text-anchor="middle" font-size="12">2</text>
<text x="276.6666666666667" y="410" text-anchor="middle" font-size="12">3</text>
<text x="363.3333333333333" y="410" text-anchor="middle" font-size="12">4</text>
<text x="450.0" y="410" text-anchor="middle" font-size="12">5</text>
<text x="536.6666666666667" y="410" text-anchor="middle" font-size="12">6</text>
<text x="623.3333333333334" y="410" text-anchor="middle" font-size="12">7</text>
<text x="710.0000000000001" y="410" text-anchor="middle" font-size="12">8</text>
<text x="796.6666666666667" y="410" text-anchor="middle" font-size="12">9</text>
<rect x="73.00" y="280.61" width="30.33" height="109.39" fill="#1b9e77"/>
<rect x="159.67" y="60.00" width="30.33" height="330.00" fill="#1b9e77"/>
<rect x="246.33" y="367.30" width="30.33" height="22.70" fill="#1b9e77"/>
<rect x="333.00" y="350.81" width="30.33" height="39.19" fill="#1b9e77"/>
<rect x="419.67" y="368.04" width="30.33" height="21.96" fill="#1b9e77"/>
<rect x="506.33" y="377.88" width="30.33" height="12.12" fill="#1b9e77"/>
<rect x="593.00" y="370.20" width="30.33" height="19.80" fill="#1b9e77"/>
<rect x="679.67" y="381.14" width="30.33" height="8.86" fill="#1b9e77"/>
<rect x="766.33" y="375.71" width="30.33" height="14.29" fill="#1b9e77"/>
<rect x="103.33" y="215.91" width="30.33" height="174.09" fill="#7570b3"/>
<rect x="190.00" y="288.16" width="30.33" height="101.84" fill="#7570b3"/>
<rect x="276.67" y="317.75" width="30.33" height="72.25" fill="#7570b3"/>
<rect x="363.33" y="333.96" width="30.33" height="56.04" fill="#7570b3"/>
<rect x="450.00" y="344.21" width="30.33" height="45.79" fill="#7570b3"/>
<rect x="536.67" y="351.28" width="30.33" height="38.72" fill="#7570b3"/>
<rect x="623.33" y="356.46" width="30.33" height="33.54" fill="#7570b3"/>
<rect x="710.00" y="360.42" width="30.33" height="29.58" fill="#7570b3"/>
<rect x="796.67" y="363.54" width="30.33" height="26.46" fill="#7570b3"/>
<rect x="850" y="50" width="12" height="12" fill="#1b9e77"/>
<text x="868" y="60" font-size="12">Observed</text>
<rect x="850" y="70" width="12" height="12" fill="#7570b3"/>
<text x="868" y="80" font-size="12">Expected</text>
</svg>